<svg width="11" height="7" viewBox="0 0 11 7" fill="none" xmlns="http://www.w3.org/2000/svg">
<path d="M0.695704 0.834433C0.633669 0.896312 0.58445 0.969821 0.550868 1.05075C0.517286 1.13168 0.5 1.21844 0.5 1.30606C0.5 1.39368 0.517286 1.48044 0.550868 1.56137C0.58445 1.6423 0.633669 1.71581 0.695704 1.77769L5.12422 6.20621C5.17353 6.25562 5.23209 6.29481 5.29656 6.32155C5.36102 6.3483 5.43013 6.36206 5.49993 6.36206C5.56972 6.36206 5.63883 6.3483 5.7033 6.32155C5.76777 6.29481 5.82633 6.25562 5.87563 6.20621L10.3042 1.77769C10.5653 1.51656 10.5653 1.09556 10.3042 0.834432C10.043 0.573304 9.62202 0.573304 9.36089 0.834432L5.49726 4.69273L1.63363 0.829104C1.37783 0.573306 0.951503 0.573305 0.695704 0.834433Z" fill="#E8F1F2"/>
</svg>
