<svg width="19" height="19" viewBox="0 0 19 19" fill="none" xmlns="http://www.w3.org/2000/svg">
<path d="M8.75 3.20889C8.74873 2.79468 9.08345 2.45784 9.49768 2.45655C9.9119 2.45525 10.2487 2.78998 10.25 3.20419L8.75 3.20889Z" fill="#98A0A8"/>
<path d="M11.2368 8.67072L10.2701 9.6434L10.25 3.2041L8.74996 3.2088L8.77013 9.64812L7.79748 8.68152C7.50367 8.38953 7.02878 8.391 6.73681 8.68482C6.44483 8.9786 6.44633 9.4535 6.74014 9.74547L6.74202 9.74735L6.74276 9.7481L9.52921 12.5171L12.2904 9.73843L12.2946 9.73423L12.2952 9.73362L12.2958 9.73303L12.3002 9.7286L11.2368 8.67072Z" fill="#98A0A8"/>
<path d="M12.3008 9.72816C12.5927 9.43431 12.5912 8.95941 12.2975 8.66744C12.0036 8.37549 11.5287 8.377 11.2368 8.67081L12.3008 9.72816Z" fill="#98A0A8"/>
<path d="M3.5 9.94946C3.5 9.12101 4.17157 8.44946 5 8.44946C5.41421 8.44946 5.75 8.11367 5.75 7.69946C5.75 7.28525 5.41421 6.94946 5 6.94946C3.34314 6.94946 2 8.29261 2 9.94946V14.4495C2 16.1063 3.34314 17.4495 5 17.4495H13.25C15.321 17.4495 17 15.7705 17 13.6995V9.94946C17 8.29261 15.6568 6.94946 14 6.94946C13.5858 6.94946 13.25 7.28525 13.25 7.69946C13.25 8.11367 13.5858 8.44946 14 8.44946C14.8285 8.44946 15.5 9.12101 15.5 9.94946V13.6995C15.5 14.9421 14.4927 15.9495 13.25 15.9495H5C4.17157 15.9495 3.5 15.2779 3.5 14.4495V9.94946Z" fill="#98A0A8"/>
</svg>
