<svg width="48" height="32" viewBox="0 0 48 32" fill="none" xmlns="http://www.w3.org/2000/svg">
<path fill-rule="evenodd" clip-rule="evenodd" d="M42.3918 20.9644C39.7545 21.528 39.942 19.0634 39.6895 17.2336C39.4376 15.4037 38.2524 10.2686 37.6017 8.06806C36.9516 5.86812 33.7085 2.61969 28.6521 1.30284C23.9876 0.0877253 19.8501 0.864103 19.2375 0.991418C18.6205 1.09564 14.4842 1.88013 10.5855 4.71104C6.35919 7.7791 4.52703 11.9849 4.72581 14.2703C4.92459 16.5558 5.69784 21.7682 6.13166 23.5644C6.56548 25.3606 7.64065 27.5867 4.9796 28.0223C2.31855 28.4586 -0.525649 28.6271 0.0831977 29.6637C0.692044 30.7003 1.8541 32.4565 17.9792 30.4557C17.9792 30.4557 23.1569 29.6643 24.5358 29.4147C24.5596 29.4109 24.5865 29.406 24.6146 29.4003C24.6427 29.3953 24.6696 29.3904 24.6934 29.3854C26.0679 29.1145 31.1775 27.9655 31.1775 27.9655C46.9225 23.9538 47.3626 21.8956 47.5507 20.7085C47.7389 19.5215 45.0291 20.4002 42.3924 20.9638L42.3918 20.9644ZM14.2842 18.3806L14.2561 18.3825C13.9079 18.38 13.6291 18.0998 13.6285 17.7566L13.626 13.2549C13.6285 12.9073 13.9091 12.629 14.2529 12.6283L14.2855 12.6296C14.633 12.6283 14.9118 12.9086 14.9124 13.2524V17.7584C14.9124 18.1017 14.6324 18.3838 14.2842 18.3813V18.3806ZM16.8509 22.227H16.8365C16.4846 22.2245 16.202 21.9411 16.2001 21.591V9.41549C16.2001 9.06849 16.4858 8.78203 16.834 8.78452H16.8521C17.1997 8.7839 17.486 9.06599 17.4878 9.41611V21.5916C17.4853 21.943 17.2022 22.2251 16.8509 22.227ZM19.4288 20.2985H19.4075C19.0525 20.2985 18.7693 20.0152 18.7674 19.6644L18.7699 11.3433C18.7687 10.9963 19.055 10.7099 19.4069 10.7111H19.4281C19.7788 10.7086 20.0626 10.9951 20.0645 11.3458V19.6632C20.0632 20.0139 19.7801 20.2966 19.4288 20.2985ZM22.6287 23.5132C22.6305 23.8633 22.3467 24.1461 21.9961 24.1479H21.9779C21.6297 24.1454 21.3434 23.8627 21.3459 23.5157L21.3434 6.85294C21.3422 6.50594 21.6285 6.21948 21.9804 6.22136H21.9948C22.3455 6.22011 22.6287 6.50345 22.6305 6.85357L22.6293 23.5132H22.6287ZM24.569 20.2985L24.544 20.2997C24.1964 20.301 23.9095 20.0152 23.912 19.6675L23.9095 11.3402C23.912 10.9926 24.1952 10.7099 24.5465 10.7086H24.5677C24.919 10.7099 25.2022 10.9926 25.2041 11.3433L25.2022 19.6682C25.2041 20.0183 24.9203 20.301 24.569 20.2991V20.2985ZM27.1381 22.2257H27.12C26.7687 22.2238 26.4855 21.9411 26.4843 21.5941V9.41549C26.4868 9.06787 26.7693 8.78203 27.1206 8.7839H27.135C27.4857 8.78328 27.7688 9.06599 27.7707 9.41611V21.5916C27.772 21.9417 27.485 22.2251 27.1375 22.2263L27.1381 22.2257ZM30.3399 13.2506L30.343 17.7559C30.3399 18.0998 30.0598 18.3819 29.7154 18.3788L29.6873 18.3806C29.3397 18.3819 29.0609 18.1017 29.0597 17.7547L29.0609 13.2524C29.0597 12.9054 29.3403 12.6271 29.6848 12.6265L29.7173 12.6277C30.0611 12.6277 30.3399 12.9073 30.3405 13.2512L30.3399 13.2506Z" fill="#1D9BF0"/>
</svg>
