<svg width="17" height="16" viewBox="0 0 17 16" fill="none" xmlns="http://www.w3.org/2000/svg">
<path d="M14.5 14L11.6047 11.1047M11.6047 11.1047C12.0999 10.6094 12.4928 10.0214 12.7608 9.37435C13.0289 8.72726 13.1668 8.03372 13.1668 7.33332C13.1668 6.63292 13.0289 5.93937 12.7608 5.29229C12.4928 4.6452 12.0999 4.05724 11.6047 3.56198C11.1094 3.06673 10.5215 2.67387 9.87438 2.40583C9.22729 2.1378 8.53375 1.99985 7.83335 1.99985C7.13295 1.99985 6.4394 2.1378 5.79232 2.40583C5.14523 2.67387 4.55727 3.06673 4.06202 3.56198C3.0618 4.5622 2.49988 5.91879 2.49988 7.33332C2.49988 8.74784 3.0618 10.1044 4.06202 11.1047C5.06224 12.1049 6.41882 12.6668 7.83335 12.6668C9.24787 12.6668 10.6045 12.1049 11.6047 11.1047Z" stroke="#E8F1F2" stroke-width="1.5" stroke-linecap="round" stroke-linejoin="round"/>
</svg>
