<svg width="0" height="0" class="hidden">
  <symbol fill="none" xmlns="http://www.w3.org/2000/svg" id="logo" viewBox="0 0 175 32">
    <path fill-rule="evenodd" clip-rule="evenodd" d="M42.8918 20.9644C40.2545 21.528 40.442 19.0634 40.1895 17.2336C39.9376 15.4037 38.7524 10.2686 38.1017 8.06806C37.4516 5.86812 34.2085 2.61969 29.1521 1.30284C24.4876 0.0877253 20.3501 0.864103 19.7375 0.991418C19.1205 1.09564 14.9842 1.88013 11.0855 4.71104C6.85919 7.7791 5.02703 11.9849 5.22581 14.2703C5.42459 16.5558 6.19784 21.7682 6.63166 23.5644C7.06548 25.3606 8.14065 27.5867 5.4796 28.0223C2.81855 28.4586 -0.025649 28.6271 0.583198 29.6637C1.19204 30.7003 2.3541 32.4565 18.4792 30.4557C18.4792 30.4557 23.6569 29.6643 25.0358 29.4147C25.0596 29.4109 25.0865 29.406 25.1146 29.4003C25.1427 29.3953 25.1696 29.3904 25.1934 29.3854C26.5679 29.1145 31.6775 27.9655 31.6775 27.9655C47.4225 23.9538 47.8626 21.8956 48.0507 20.7085C48.2389 19.5215 45.5291 20.4002 42.8924 20.9638L42.8918 20.9644ZM14.7842 18.3806L14.7561 18.3825C14.4079 18.38 14.1291 18.0998 14.1285 17.7566L14.126 13.2549C14.1285 12.9073 14.4091 12.629 14.7529 12.6283L14.7855 12.6296C15.133 12.6283 15.4118 12.9086 15.4124 13.2524V17.7584C15.4124 18.1017 15.1324 18.3838 14.7842 18.3813V18.3806ZM17.3509 22.227H17.3365C16.9846 22.2245 16.702 21.9411 16.7001 21.591V9.41549C16.7001 9.06849 16.9858 8.78203 17.334 8.78452H17.3521C17.6997 8.7839 17.986 9.06599 17.9878 9.41611V21.5916C17.9853 21.943 17.7022 22.2251 17.3509 22.227ZM19.9288 20.2985H19.9075C19.5525 20.2985 19.2693 20.0152 19.2674 19.6644L19.2699 11.3433C19.2687 10.9963 19.555 10.7099 19.9069 10.7111H19.9281C20.2788 10.7086 20.5626 10.9951 20.5645 11.3458V19.6632C20.5632 20.0139 20.2801 20.2966 19.9288 20.2985ZM23.1287 23.5132C23.1305 23.8633 22.8467 24.1461 22.4961 24.1479H22.4779C22.1297 24.1454 21.8434 23.8627 21.8459 23.5157L21.8434 6.85294C21.8422 6.50594 22.1285 6.21948 22.4804 6.22136H22.4948C22.8455 6.22011 23.1287 6.50345 23.1305 6.85357L23.1293 23.5132H23.1287ZM25.069 20.2985L25.044 20.2997C24.6964 20.301 24.4095 20.0152 24.412 19.6675L24.4095 11.3402C24.412 10.9926 24.6952 10.7099 25.0465 10.7086H25.0677C25.419 10.7099 25.7022 10.9926 25.7041 11.3433L25.7022 19.6682C25.7041 20.0183 25.4203 20.301 25.069 20.2991V20.2985ZM27.6381 22.2257H27.62C27.2687 22.2238 26.9855 21.9411 26.9843 21.5941V9.41549C26.9868 9.06787 27.2693 8.78203 27.6206 8.7839H27.635C27.9857 8.78328 28.2688 9.06599 28.2707 9.41611V21.5916C28.272 21.9417 27.985 22.2251 27.6375 22.2263L27.6381 22.2257ZM30.8399 13.2506L30.843 17.7559C30.8399 18.0998 30.5598 18.3819 30.2154 18.3788L30.1873 18.3806C29.8397 18.3819 29.5609 18.1017 29.5597 17.7547L29.5609 13.2524C29.5597 12.9054 29.8403 12.6271 30.1848 12.6265L30.2173 12.6277C30.5611 12.6277 30.8399 12.9073 30.8405 13.2512L30.8399 13.2506Z" fill="#1D9BF0"></path>
    <path d="M72.2568 18.6368C71.1098 22.6711 67.44 23.449 65.4042 23.449C54.6524 23.449 54.5089 5.84247 65.8346 5.84247C67.9852 5.84247 71.7123 6.7357 71.7123 9.55957C71.7123 10.943 70.7662 11.6056 69.8487 11.6056C69.0461 11.6056 68.3 11.0872 68.3 10.1075C68.3 9.44497 68.8165 8.89704 68.8165 8.32104C68.8452 6.90872 67.1825 6.41923 66.0929 6.41923C58.1795 6.41923 59.8996 21.9509 67.1251 21.9509C69.2182 21.9509 71.254 20.4528 71.7123 18.4645L72.2568 18.6375V18.6368Z" fill="#EEEEEE"></path>
    <path d="M84.2121 13.0468C84.2121 11.0585 83.3234 9.96337 81.4885 9.96337C80.2554 9.96337 78.9657 10.6259 77.8187 11.6056V22.8723H79.7684V23.4483H72.4288V22.8723H74.3785V3.85422H72.4288V3.27821C73.4036 3.27821 75.9264 3.27821 77.5325 2.78796H77.8195V10.8854C79.1092 9.87686 81.231 8.75293 83.1233 8.75293C86.6783 8.75293 87.6531 10.7701 87.6531 13.8823V22.873H89.6028V23.449H82.2632V22.873H84.2129V13.0468H84.2121Z" fill="#EEEEEE"></path>
    <path d="M99.1216 12.7006C99.1216 10.4815 97.7451 9.61716 96.5701 9.61716C95.5666 9.61716 94.4196 10.0497 94.4196 11.2306C94.4196 11.8066 94.8787 12.2968 94.8787 12.9594C94.8787 14.0256 94.1334 14.5151 93.3307 14.5151C92.5281 14.5151 91.6393 13.9679 91.6393 12.8728C91.6393 10.5961 95.4526 8.75201 98.0335 8.75201C100.614 8.75201 102.621 9.87595 102.649 12.6421C102.678 16.215 99.3806 16.042 96.8865 16.3592C94.9942 16.5899 93.3602 16.8776 93.3602 18.7505C93.3602 20.1628 94.1916 21.1138 95.6821 21.1138C99.0944 21.0849 99.6962 18.5783 101.646 18.5783C102.133 18.5783 102.563 18.7513 102.563 19.3273V20.6531C102.563 21.8924 102.563 22.8721 103.853 22.8721H104.427V23.4481C103.796 23.5058 102.362 23.5346 101.732 23.5346C99.6675 23.5346 99.1805 22.8721 99.1231 20.5666C97.7466 21.5463 96.2273 23.7654 93.7325 23.7654C91.5532 23.7654 89.9479 22.2384 89.9479 20.0483C89.9479 14.4294 99.1231 17.9446 99.1231 12.7006H99.1216Z" fill="#EEEEEE"></path>
    <path d="M115.092 8.75284C123.12 8.75284 122.489 23.7373 113.63 23.7373C112.483 23.7373 110.992 23.046 110.018 22.2104V28.636H111.967V29.212H104.628V28.636H106.577V9.61722H104.628V9.04122C105.603 9.04122 108.125 9.04122 109.731 8.55173H110.018V10.9149C112.083 9.53147 113.602 8.75359 115.093 8.75359L115.092 8.75284ZM110.017 21.4895C110.819 22.1808 111.794 22.7576 112.855 22.7576C118.618 22.7576 118.589 10.6546 112.798 10.6546C111.794 10.6546 110.848 11.0295 110.017 11.5479V21.4895Z" fill="#EEEEEE"></path>
    <path d="M121.17 22.873H123.119V3.85422H121.17V3.27821C122.145 3.27821 124.667 3.27821 126.273 2.78796H126.56V22.873H128.51V23.449H121.17V22.873H121.17Z" fill="#EEEEEE"></path>
    <path d="M142.072 19.155C141.011 22.1231 138.172 23.7365 135.707 23.7365C126.933 23.7365 126.446 8.75201 135.908 8.75201C139.062 8.75201 142.326 10.9915 142.355 13.8731H132.635C131.976 17.3595 133.528 21.1722 138.058 21.1722C139.52 21.1722 140.925 20.452 141.757 19.0108L142.072 19.155H142.072ZM139.085 13.2971C138.942 11.5395 137.943 9.32878 135.936 9.32878C134.101 9.32878 133.265 11.5683 132.778 13.2971H139.085Z" fill="#EEEEEE"></path>
    <path d="M151.82 12.7006C151.82 10.4815 150.444 9.61716 149.268 9.61716C148.265 9.61716 147.118 10.0497 147.118 11.2306C147.118 11.8066 147.576 12.2968 147.576 12.9594C147.576 14.0256 146.831 14.5151 146.028 14.5151C145.226 14.5151 144.337 13.9679 144.337 12.8728C144.337 10.5961 148.15 8.75201 150.73 8.75201C153.31 8.75201 155.317 9.87595 155.346 12.6421C155.375 16.215 152.077 16.042 149.583 16.3592C147.691 16.5899 146.057 16.8776 146.057 18.7505C146.057 20.1628 146.888 21.1138 148.379 21.1138C151.79 21.0849 152.393 18.5783 154.343 18.5783C154.83 18.5783 155.26 18.7513 155.26 19.3273V20.6531C155.26 21.8924 155.26 22.8721 156.55 22.8721H157.124V23.4481C156.492 23.5058 155.059 23.5346 154.429 23.5346C152.364 23.5346 151.876 22.8721 151.819 20.5666C150.443 21.5463 148.923 23.7654 146.429 23.7654C144.25 23.7654 142.645 22.2384 142.645 20.0483C142.645 14.4294 151.82 17.9446 151.82 12.7006Z" fill="#EEEEEE"></path>
    <path d="M174.499 22.8729V23.449H167.16V22.8729H169.109V13.0467C169.109 11.0584 168.221 9.96328 166.386 9.96328C165.153 9.96328 163.862 10.6258 162.716 11.6055V22.8722H164.666V23.4482H157.326V22.8722H159.276V9.61722H157.326V9.04122C158.301 9.04122 160.824 9.04122 162.43 8.55173H162.717V10.8861C164.006 9.87753 166.128 8.75359 168.021 8.75359C171.576 8.75359 172.55 10.7708 172.55 13.883V22.8737H174.5L174.499 22.8729Z" fill="#EEEEEE"></path>
  </symbol>
  <symbol fill="none" xmlns="http://www.w3.org/2000/svg" id="search" viewBox="0 0 17 16">
    <path d="M14.5 14L11.6047 11.1047M11.6047 11.1047C12.0999 10.6094 12.4928 10.0214 12.7608 9.37435C13.0289 8.72726 13.1668 8.03372 13.1668 7.33332C13.1668 6.63292 13.0289 5.93937 12.7608 5.29229C12.4928 4.6452 12.0999 4.05724 11.6047 3.56198C11.1094 3.06673 10.5215 2.67387 9.87438 2.40583C9.22729 2.1378 8.53375 1.99985 7.83335 1.99985C7.13295 1.99985 6.4394 2.1378 5.79232 2.40583C5.14523 2.67387 4.55727 3.06673 4.06202 3.56198C3.0618 4.5622 2.49988 5.91879 2.49988 7.33332C2.49988 8.74784 3.0618 10.1044 4.06202 11.1047C5.06224 12.1049 6.41882 12.6668 7.83335 12.6668C9.24787 12.6668 10.6045 12.1049 11.6047 11.1047Z" stroke="#E8F1F2" stroke-width="1.5" stroke-linecap="round" stroke-linejoin="round"></path>
  </symbol>
  <symbol fill="none" xmlns="http://www.w3.org/2000/svg" id="download" viewBox="0 0 19 19">
    <path d="M8.75 3.20889C8.74873 2.79468 9.08345 2.45784 9.49768 2.45655C9.9119 2.45525 10.2487 2.78998 10.25 3.20419L8.75 3.20889Z" fill="#98A0A8"></path>
    <path d="M11.2368 8.67072L10.2701 9.6434L10.25 3.2041L8.74996 3.2088L8.77013 9.64812L7.79748 8.68152C7.50367 8.38953 7.02878 8.391 6.73681 8.68482C6.44483 8.9786 6.44633 9.4535 6.74014 9.74547L6.74202 9.74735L6.74276 9.7481L9.52921 12.5171L12.2904 9.73843L12.2946 9.73423L12.2952 9.73362L12.2958 9.73303L12.3002 9.7286L11.2368 8.67072Z" fill="#98A0A8"></path>
    <path d="M12.3008 9.72816C12.5927 9.43431 12.5912 8.95941 12.2975 8.66744C12.0036 8.37549 11.5287 8.377 11.2368 8.67081L12.3008 9.72816Z" fill="#98A0A8"></path>
    <path d="M3.5 9.94946C3.5 9.12101 4.17157 8.44946 5 8.44946C5.41421 8.44946 5.75 8.11367 5.75 7.69946C5.75 7.28525 5.41421 6.94946 5 6.94946C3.34314 6.94946 2 8.29261 2 9.94946V14.4495C2 16.1063 3.34314 17.4495 5 17.4495H13.25C15.321 17.4495 17 15.7705 17 13.6995V9.94946C17 8.29261 15.6568 6.94946 14 6.94946C13.5858 6.94946 13.25 7.28525 13.25 7.69946C13.25 8.11367 13.5858 8.44946 14 8.44946C14.8285 8.44946 15.5 9.12101 15.5 9.94946V13.6995C15.5 14.9421 14.4927 15.9495 13.25 15.9495H5C4.17157 15.9495 3.5 15.2779 3.5 14.4495V9.94946Z" fill="#98A0A8"></path>
  </symbol>
  <symbol fill="none" xmlns="http://www.w3.org/2000/svg" id="chevron" viewBox="0 0 11 7">
    <path d="M0.695704 0.834433C0.633669 0.896312 0.58445 0.969821 0.550868 1.05075C0.517286 1.13168 0.5 1.21844 0.5 1.30606C0.5 1.39368 0.517286 1.48044 0.550868 1.56137C0.58445 1.6423 0.633669 1.71581 0.695704 1.77769L5.12422 6.20621C5.17353 6.25562 5.23209 6.29481 5.29656 6.32155C5.36102 6.3483 5.43013 6.36206 5.49993 6.36206C5.56972 6.36206 5.63883 6.3483 5.7033 6.32155C5.76777 6.29481 5.82633 6.25562 5.87563 6.20621L10.3042 1.77769C10.5653 1.51656 10.5653 1.09556 10.3042 0.834432C10.043 0.573304 9.62202 0.573304 9.36089 0.834432L5.49726 4.69273L1.63363 0.829104C1.37783 0.573306 0.951503 0.573305 0.695704 0.834433Z" fill="#E8F1F2"></path>
  </symbol>
</svg>